<?xml version="1.0" encoding="UTF-8"?>
<svg id="Layer_1" xmlns="http://www.w3.org/2000/svg" viewBox="0 0 16 16">
  <defs>
    <style>
      .cls-1 {
        fill: #17181d;
      }

      .cls-2 {
        fill: #fff;
      }
    </style>
  </defs>
  <rect class="cls-1" x="0" width="16" height="16" rx="4.1" ry="4.1"/>
  <g>
    <path class="cls-2" d="M5.38,12.74c-.72,0-1.38-.12-1.96-.35-.58-.23-1.07-.58-1.46-1.03l1.68-1.99c.25.3.49.53.73.68.24.15.49.23.74.23.67,0,1.01-.38,1.01-1.15v-3.52h-3.15v-2.36h6.24v5.7c0,1.27-.33,2.22-.98,2.85-.65.63-1.6.94-2.85.94Z"/>
    <path class="cls-2" d="M12.05,7.89c-.35,0-.68-.06-.98-.17-.3-.11-.56-.27-.79-.48-.22-.21-.39-.45-.52-.73s-.18-.6-.18-.94.06-.65.18-.94c.12-.28.29-.53.52-.73.22-.21.48-.37.79-.48.3-.11.63-.17.98-.17.43,0,.82.08,1.16.23.34.15.61.37.83.66l-.94.84c-.13-.16-.28-.29-.43-.38s-.34-.14-.53-.14c-.16,0-.3.03-.42.08-.13.05-.24.12-.33.22-.09.1-.16.21-.21.35-.05.14-.08.29-.08.46s.03.32.08.46c.05.14.12.25.21.35.09.1.2.17.33.22.13.05.27.08.42.08.2,0,.38-.05.53-.14s.3-.22.43-.38l.94.84c-.22.28-.5.5-.83.66-.34.15-.72.23-1.16.23Z"/>
    <path class="cls-2" d="M9.89,12.74v-4.43h2.13c.41,0,.77.07,1.07.2.3.14.54.33.7.58.16.25.25.55.25.89s-.08.64-.25.89c-.16.25-.4.44-.7.58-.3.14-.66.21-1.07.21h-1.3l.66-.64v1.73h-1.49ZM11.38,11.18l-.66-.68h1.21c.21,0,.36-.05.46-.14.1-.09.15-.22.15-.38s-.05-.29-.15-.38c-.1-.09-.25-.14-.46-.14h-1.21l.66-.68v2.39Z"/>
  </g>
</svg>